<svg width="685" height="685" viewBox="0 0 685 685" fill="none" xmlns="http://www.w3.org/2000/svg">
<rect width="685" height="685" fill="black"/>
<path d="M528.899 320.975C531.775 325.36 534.856 330.318 538.071 335.757C547.139 351.096 555.311 366.83 560.417 376.772C570.034 395.501 578.351 410.459 587.186 427.1C596.924 445.443 599.598 450.155 606.908 465.227C611.309 474.299 617.225 485.063 621.934 493.908C627.07 503.556 631.246 511.775 633.982 518.478L634.363 519.409L634.789 520.319C639.372 530.108 654.103 558.202 667.264 583.479C673.721 595.88 679.987 607.96 685 617.796V685H0V617.881C0.1927 617.524 0.388145 617.16 0.588867 616.79C5.0952 608.481 11.0871 597.757 17.4443 586.47C29.8121 564.51 44.0537 539.566 49.3203 529.628C58.6286 512.063 69.1298 496.65 81.8447 475.389C96.9836 450.074 103.349 439.932 107.336 433.716C111.427 427.338 113.913 423.716 120.405 412.787C131.749 393.691 140.253 380.21 152.936 364.112C157.286 358.591 162.602 350.359 166.873 343.814C171.182 337.212 175.598 330.461 180.088 324.094C182.37 327.148 184.359 329.861 185.828 331.853C211.593 366.775 219.341 377.533 221.696 380.912C221.934 381.286 222.285 381.836 222.784 382.608C224.087 384.626 226.021 387.195 228.5 390.5C240.88 407.006 251.992 420.61 270.229 437.605C280.15 446.852 291.737 455.361 307.588 460.844C322.572 466.027 338.663 467.554 356.245 467.572C377.762 467.595 394.937 459.34 407.311 451.101C418.781 443.463 429.408 433.386 434.853 428.587C454.844 410.965 474.277 386.091 485.781 373.322C493.194 365.095 504.847 350.566 515.031 337.972C520.107 331.695 524.816 325.905 528.899 320.975ZM685 442.203C682.703 437.885 680.665 433.976 678.89 430.315C670.783 413.602 667.258 407.315 657.846 389.586C648.043 371.122 640.966 358.499 631.583 340.228C626.369 330.073 617.29 312.557 606.938 295.046C597.218 278.603 584.104 258.18 570.404 244.841C565.578 240.142 558.422 234 548.943 230.115C537.722 225.516 525.273 224.911 513.301 229.175C503.343 232.721 496.328 238.783 492.73 242.092C489.028 245.497 485.04 249.787 482.557 252.391C474.848 260.472 462.995 275.092 452.824 287.67C441.683 301.448 431.913 313.595 426.348 319.771C408.236 339.873 397.527 354.845 381.953 368.573C373.116 376.363 368.555 380.795 362.973 384.512C358.297 387.625 356.554 387.573 356.329 387.572C342.718 387.558 336.705 386.265 333.74 385.239C331.642 384.513 329.433 383.424 324.771 379.08C311.976 367.156 304.172 357.924 294.468 345.112L292.5 342.5C286.508 334.51 293.332 343.89 287.966 336.083C285.121 331.945 277.015 320.699 250.203 284.357C247.167 280.243 239.263 269.362 231.231 259.583C227.294 254.788 222.525 249.267 217.72 244.637C215.385 242.387 212.082 239.407 208.139 236.732C205.918 235.226 196.474 228.709 183.14 228.505L182.502 228.5C170.482 228.499 160.859 232.821 154.735 236.404C148.394 240.115 143.072 244.641 138.909 248.649C130.622 256.63 123.041 266.385 116.891 274.927C110.57 283.705 104.606 292.847 99.877 300.094C94.5595 308.242 91.6589 312.619 90.0957 314.604C74.214 334.762 63.6347 351.714 51.626 371.93C46.0222 381.363 44.5078 383.492 39.998 390.523C35.3843 397.716 28.5473 408.643 13.1865 434.328C9.34687 440.749 4.77286 448.056 0 455.763V0H685V442.203Z" fill="#D9D9D9"/>
</svg>
