<svg width="873" height="873" viewBox="0 0 873 873" fill="none" xmlns="http://www.w3.org/2000/svg">
<g filter="url(#filter0_d_1822_7684)">
<rect x="94" y="90" width="685" height="685" fill="black"/>
</g>
<path d="M622.899 410.975C625.775 415.36 628.856 420.318 632.071 425.757C641.139 441.096 649.311 456.83 654.417 466.772C664.034 485.501 672.351 500.459 681.186 517.1C690.924 535.443 693.598 540.155 700.908 555.227C705.309 564.299 711.225 575.063 715.934 583.908C721.07 593.556 725.246 601.775 727.982 608.478L728.363 609.409L728.789 610.319C733.372 620.108 748.103 648.202 761.264 673.479C767.721 685.88 773.987 697.96 779 707.796V775H94V707.881C94.1927 707.524 94.3881 707.16 94.5889 706.79C99.0952 698.481 105.087 687.757 111.444 676.47C123.812 654.51 138.054 629.566 143.32 619.628C152.629 602.063 163.13 586.65 175.845 565.389C190.984 540.074 197.349 529.932 201.336 523.716C205.427 517.338 207.913 513.716 214.405 502.787C225.749 483.691 234.253 470.21 246.936 454.112C251.286 448.591 256.602 440.359 260.873 433.814C265.182 427.212 269.598 420.461 274.088 414.094C276.37 417.148 278.359 419.861 279.828 421.853C305.593 456.775 313.341 467.533 315.696 470.912C315.934 471.286 316.285 471.836 316.784 472.608C318.087 474.626 320.021 477.195 322.5 480.5C334.88 497.006 345.992 510.61 364.229 527.605C374.15 536.852 385.737 545.361 401.588 550.844C416.572 556.027 432.663 557.554 450.245 557.572C471.762 557.595 488.937 549.34 501.311 541.101C512.781 533.463 523.408 523.386 528.853 518.587C548.844 500.965 568.277 476.091 579.781 463.322C587.194 455.095 598.847 440.566 609.031 427.972C614.107 421.695 618.816 415.905 622.899 410.975ZM779 532.203C776.703 527.885 774.665 523.976 772.89 520.315C764.783 503.602 761.258 497.315 751.846 479.586C742.043 461.122 734.966 448.499 725.583 430.228C720.369 420.073 711.29 402.557 700.938 385.046C691.218 368.603 678.104 348.18 664.404 334.841C659.578 330.142 652.422 324 642.943 320.115C631.722 315.516 619.273 314.911 607.301 319.175C597.343 322.721 590.328 328.783 586.73 332.092C583.028 335.497 579.04 339.787 576.557 342.391C568.848 350.472 556.995 365.092 546.824 377.67C535.683 391.448 525.913 403.595 520.348 409.771C502.236 429.873 491.527 444.845 475.953 458.573C467.116 466.363 462.555 470.795 456.973 474.512C452.297 477.625 450.554 477.573 450.329 477.572C436.718 477.558 430.705 476.265 427.74 475.239C425.642 474.513 423.433 473.424 418.771 469.08C405.976 457.156 398.172 447.924 388.468 435.112L386.5 432.5C380.508 424.51 387.332 433.89 381.966 426.083C379.121 421.945 371.015 410.699 344.203 374.357C341.167 370.243 333.263 359.362 325.231 349.583C321.294 344.788 316.525 339.267 311.72 334.637C309.385 332.387 306.082 329.407 302.139 326.732C299.918 325.226 290.474 318.709 277.14 318.505L276.502 318.5C264.482 318.499 254.859 322.821 248.735 326.404C242.394 330.115 237.072 334.641 232.909 338.649C224.622 346.63 217.041 356.385 210.891 364.927C204.57 373.705 198.606 382.847 193.877 390.094C188.559 398.242 185.659 402.619 184.096 404.604C168.214 424.762 157.635 441.714 145.626 461.93C140.022 471.363 138.508 473.492 133.998 480.523C129.384 487.716 122.547 498.643 107.187 524.328C103.347 530.749 98.7729 538.056 94 545.763V90H779V532.203Z" fill="#F1F1F1"/>
<defs>
<filter id="filter0_d_1822_7684" x="0" y="0" width="873" height="873" filterUnits="userSpaceOnUse" color-interpolation-filters="sRGB">
<feFlood flood-opacity="0" result="BackgroundImageFix"/>
<feColorMatrix in="SourceAlpha" type="matrix" values="0 0 0 0 0 0 0 0 0 0 0 0 0 0 0 0 0 0 127 0" result="hardAlpha"/>
<feMorphology radius="12" operator="dilate" in="SourceAlpha" result="effect1_dropShadow_1822_7684"/>
<feOffset dy="4"/>
<feGaussianBlur stdDeviation="41"/>
<feComposite in2="hardAlpha" operator="out"/>
<feColorMatrix type="matrix" values="0 0 0 0 0 0 0 0 0 0 0 0 0 0 0 0 0 0 0.25 0"/>
<feBlend mode="normal" in2="BackgroundImageFix" result="effect1_dropShadow_1822_7684"/>
<feBlend mode="normal" in="SourceGraphic" in2="effect1_dropShadow_1822_7684" result="shape"/>
</filter>
</defs>
</svg>
