<svg width="850" height="201" viewBox="0 0 850 201" fill="none" xmlns="http://www.w3.org/2000/svg">
<path d="M329.23 93.152C326.158 93.152 323.726 92.2987 321.934 90.592C320.227 88.8853 319.374 86.4107 319.374 83.168V75.872H290.702C287.545 75.872 285.027 75.1893 283.15 73.824C281.273 72.3733 280.334 70.1973 280.334 67.296C280.334 65.5893 280.718 63.84 281.486 62.048C282.254 60.256 283.619 58.0373 285.582 55.392L318.734 7.13599C320.185 5.00266 321.806 3.38133 323.598 2.272C325.39 1.16266 327.438 0.607994 329.742 0.607994C332.473 0.607994 334.649 1.46133 336.27 3.168C337.977 4.78933 338.83 7.264 338.83 10.592V60.256H343.566C346.382 60.256 348.515 60.9387 349.966 62.304C351.417 63.584 352.142 65.504 352.142 68.064C352.142 70.5387 351.417 72.4587 349.966 73.824C348.601 75.1893 346.467 75.872 343.566 75.872H338.83V83.168C338.83 86.4107 337.977 88.8853 336.27 90.592C334.649 92.2987 332.302 93.152 329.23 93.152ZM319.374 60.256V25.056H323.086L295.822 65.12V60.256H319.374ZM548.98 93.152C545.908 93.152 543.476 92.2987 541.684 90.592C539.977 88.8853 539.124 86.4107 539.124 83.168V75.872H510.452C507.295 75.872 504.777 75.1893 502.9 73.824C501.023 72.3733 500.084 70.1973 500.084 67.296C500.084 65.5893 500.468 63.84 501.236 62.048C502.004 60.256 503.369 58.0373 505.332 55.392L538.484 7.13599C539.935 5.00266 541.556 3.38133 543.348 2.272C545.14 1.16266 547.188 0.607994 549.492 0.607994C552.223 0.607994 554.399 1.46133 556.02 3.168C557.727 4.78933 558.58 7.264 558.58 10.592V60.256H563.316C566.132 60.256 568.265 60.9387 569.716 62.304C571.167 63.584 571.892 65.504 571.892 68.064C571.892 70.5387 571.167 72.4587 569.716 73.824C568.351 75.1893 566.217 75.872 563.316 75.872H558.58V83.168C558.58 86.4107 557.727 88.8853 556.02 90.592C554.399 92.2987 552.052 93.152 548.98 93.152ZM539.124 60.256V25.056H542.836L515.572 65.12V60.256H539.124Z" fill="black"/>
<path d="M202.192 188.448C201.339 188.448 200.677 188.213 200.208 187.744C199.781 187.232 199.568 186.549 199.568 185.696V145.568C199.568 144.672 199.803 144.011 200.272 143.584C200.741 143.115 201.403 142.88 202.256 142.88H217.424C222.245 142.88 225.957 144.075 228.56 146.464C231.163 148.811 232.464 152.139 232.464 156.448C232.464 160.715 231.163 164.043 228.56 166.432C225.957 168.821 222.245 170.016 217.424 170.016H204.816V185.696C204.816 186.549 204.603 187.232 204.176 187.744C203.749 188.213 203.088 188.448 202.192 188.448ZM204.816 165.6H216.784C220.24 165.6 222.843 164.832 224.592 163.296C226.384 161.717 227.28 159.435 227.28 156.448C227.28 153.419 226.384 151.136 224.592 149.6C222.843 148.021 220.24 147.232 216.784 147.232H204.816V165.6ZM247.594 188.576C245.46 188.576 243.54 188.171 241.834 187.36C240.17 186.507 238.847 185.355 237.866 183.904C236.884 182.453 236.394 180.832 236.394 179.04C236.394 176.736 236.97 174.923 238.122 173.6C239.316 172.277 241.258 171.339 243.946 170.784C246.676 170.229 250.388 169.952 255.082 169.952H257.962V173.344H255.146C251.69 173.344 248.959 173.515 246.954 173.856C244.991 174.155 243.604 174.688 242.794 175.456C242.026 176.224 241.642 177.312 241.642 178.72C241.642 180.469 242.239 181.899 243.434 183.008C244.671 184.117 246.335 184.672 248.426 184.672C250.132 184.672 251.626 184.267 252.906 183.456C254.228 182.645 255.252 181.536 255.978 180.128C256.746 178.72 257.13 177.099 257.13 175.264V167.968C257.13 165.323 256.596 163.424 255.53 162.272C254.463 161.077 252.714 160.48 250.282 160.48C248.788 160.48 247.295 160.672 245.802 161.056C244.308 161.44 242.73 162.059 241.066 162.912C240.468 163.211 239.956 163.317 239.53 163.232C239.103 163.104 238.762 162.869 238.506 162.528C238.25 162.187 238.1 161.803 238.058 161.376C238.015 160.907 238.1 160.459 238.314 160.032C238.57 159.605 238.954 159.264 239.466 159.008C241.343 158.069 243.199 157.387 245.034 156.96C246.868 156.533 248.618 156.32 250.282 156.32C252.97 156.32 255.188 156.768 256.938 157.664C258.687 158.517 259.988 159.84 260.842 161.632C261.695 163.381 262.122 165.643 262.122 168.416V185.76C262.122 186.613 261.908 187.275 261.482 187.744C261.098 188.213 260.522 188.448 259.754 188.448C258.943 188.448 258.324 188.213 257.898 187.744C257.471 187.275 257.258 186.613 257.258 185.76V180.768H257.834C257.492 182.389 256.831 183.776 255.85 184.928C254.911 186.08 253.738 186.976 252.33 187.616C250.922 188.256 249.343 188.576 247.594 188.576ZM285.499 200.096C283.238 200.096 281.019 199.819 278.843 199.264C276.71 198.752 274.768 197.92 273.019 196.768C272.507 196.469 272.166 196.107 271.995 195.68C271.867 195.253 271.846 194.827 271.931 194.4C272.016 194.016 272.208 193.653 272.507 193.312C272.806 193.013 273.147 192.821 273.531 192.736C273.958 192.651 274.384 192.715 274.811 192.928C276.688 194.08 278.48 194.869 280.187 195.296C281.894 195.723 283.579 195.936 285.243 195.936C288.272 195.936 290.555 195.125 292.091 193.504C293.67 191.883 294.459 189.536 294.459 186.464V179.232H295.099C294.459 181.707 293.094 183.669 291.003 185.12C288.955 186.571 286.544 187.296 283.771 187.296C280.912 187.296 278.438 186.656 276.347 185.376C274.256 184.053 272.635 182.219 271.483 179.872C270.374 177.525 269.819 174.816 269.819 171.744C269.819 169.44 270.139 167.349 270.779 165.472C271.419 163.552 272.336 161.931 273.531 160.608C274.768 159.243 276.24 158.197 277.947 157.472C279.696 156.704 281.638 156.32 283.771 156.32C286.587 156.32 289.019 157.045 291.067 158.496C293.115 159.904 294.438 161.824 295.035 164.256L294.395 165.024V159.072C294.395 158.219 294.608 157.579 295.035 157.152C295.504 156.683 296.144 156.448 296.955 156.448C297.808 156.448 298.448 156.683 298.875 157.152C299.302 157.579 299.515 158.219 299.515 159.072V185.76C299.515 190.496 298.32 194.059 295.931 196.448C293.584 198.88 290.107 200.096 285.499 200.096ZM284.731 183.072C286.736 183.072 288.464 182.624 289.915 181.728C291.366 180.789 292.475 179.467 293.243 177.76C294.054 176.053 294.459 174.048 294.459 171.744C294.459 168.288 293.584 165.557 291.835 163.552C290.086 161.504 287.718 160.48 284.731 160.48C282.768 160.48 281.062 160.949 279.611 161.888C278.16 162.784 277.03 164.085 276.219 165.792C275.451 167.456 275.067 169.44 275.067 171.744C275.067 175.2 275.942 177.952 277.691 180C279.44 182.048 281.787 183.072 284.731 183.072ZM323.255 188.576C319.97 188.576 317.132 187.936 314.743 186.656C312.396 185.333 310.562 183.477 309.239 181.088C307.959 178.699 307.319 175.84 307.319 172.512C307.319 169.269 307.959 166.453 309.239 164.064C310.519 161.632 312.268 159.733 314.487 158.368C316.748 157.003 319.351 156.32 322.295 156.32C324.386 156.32 326.263 156.683 327.927 157.408C329.591 158.091 330.999 159.093 332.151 160.416C333.346 161.739 334.242 163.339 334.839 165.216C335.479 167.093 335.799 169.205 335.799 171.552C335.799 172.235 335.607 172.747 335.223 173.088C334.839 173.387 334.284 173.536 333.559 173.536H311.287V170.144H332.343L331.319 170.976C331.319 168.672 330.978 166.731 330.295 165.152C329.612 163.531 328.61 162.293 327.287 161.44C326.007 160.587 324.386 160.16 322.423 160.16C320.247 160.16 318.391 160.672 316.855 161.696C315.362 162.677 314.231 164.064 313.463 165.856C312.695 167.605 312.311 169.653 312.311 172V172.384C312.311 176.309 313.25 179.296 315.127 181.344C317.047 183.392 319.756 184.416 323.255 184.416C324.706 184.416 326.135 184.224 327.543 183.84C328.994 183.456 330.402 182.816 331.767 181.92C332.364 181.536 332.898 181.365 333.367 181.408C333.879 181.408 334.284 181.557 334.583 181.856C334.882 182.112 335.074 182.453 335.159 182.88C335.287 183.264 335.244 183.691 335.031 184.16C334.86 184.629 334.498 185.035 333.943 185.376C332.535 186.4 330.871 187.189 328.951 187.744C327.031 188.299 325.132 188.576 323.255 188.576ZM363.002 188.448C362.191 188.448 361.572 188.235 361.146 187.808C360.719 187.339 360.506 186.677 360.506 185.824V145.12C360.506 144.267 360.719 143.605 361.146 143.136C361.572 142.667 362.127 142.432 362.81 142.432C363.492 142.432 363.983 142.56 364.282 142.816C364.623 143.029 365.007 143.435 365.434 144.032L393.338 181.216H391.802V144.992C391.802 144.181 392.015 143.563 392.442 143.136C392.868 142.667 393.487 142.432 394.298 142.432C395.066 142.432 395.642 142.667 396.026 143.136C396.452 143.563 396.666 144.181 396.666 144.992V185.888C396.666 186.699 396.474 187.339 396.09 187.808C395.748 188.235 395.236 188.448 394.554 188.448C393.914 188.448 393.402 188.32 393.018 188.064C392.634 187.808 392.228 187.403 391.802 186.848L363.962 149.664H365.434V185.824C365.434 186.677 365.22 187.339 364.794 187.808C364.367 188.235 363.77 188.448 363.002 188.448ZM420.105 188.576C417.075 188.576 414.451 187.915 412.233 186.592C410.014 185.269 408.286 183.413 407.049 181.024C405.854 178.592 405.257 175.733 405.257 172.448C405.257 169.973 405.598 167.755 406.281 165.792C406.963 163.787 407.966 162.08 409.289 160.672C410.611 159.264 412.169 158.197 413.961 157.472C415.795 156.704 417.843 156.32 420.105 156.32C423.134 156.32 425.758 156.981 427.977 158.304C430.195 159.627 431.902 161.504 433.097 163.936C434.334 166.325 434.953 169.163 434.953 172.448C434.953 174.923 434.611 177.141 433.929 179.104C433.246 181.067 432.243 182.773 430.921 184.224C429.598 185.632 428.019 186.72 426.185 187.488C424.393 188.213 422.366 188.576 420.105 188.576ZM420.105 184.416C422.025 184.416 423.71 183.947 425.161 183.008C426.611 182.069 427.721 180.704 428.489 178.912C429.299 177.12 429.705 174.965 429.705 172.448C429.705 168.565 428.83 165.6 427.081 163.552C425.374 161.504 423.049 160.48 420.105 160.48C418.142 160.48 416.435 160.949 414.985 161.888C413.577 162.784 412.467 164.128 411.657 165.92C410.889 167.669 410.505 169.845 410.505 172.448C410.505 176.288 411.379 179.253 413.129 181.344C414.878 183.392 417.203 184.416 420.105 184.416ZM454.907 188.576C452.475 188.576 450.427 188.149 448.763 187.296C447.141 186.4 445.925 185.12 445.115 183.456C444.304 181.749 443.899 179.68 443.899 177.248V160.928H439.611C438.885 160.928 438.331 160.757 437.947 160.416C437.562 160.032 437.37 159.52 437.37 158.88C437.37 158.24 437.562 157.749 437.947 157.408C438.331 157.067 438.885 156.896 439.611 156.896H443.899V149.536C443.899 148.683 444.133 148.043 444.603 147.616C445.072 147.147 445.712 146.912 446.523 146.912C447.333 146.912 447.952 147.147 448.379 147.616C448.848 148.043 449.083 148.683 449.083 149.536V156.896H457.147C457.872 156.896 458.427 157.067 458.811 157.408C459.195 157.749 459.387 158.24 459.387 158.88C459.387 159.52 459.195 160.032 458.811 160.416C458.427 160.757 457.872 160.928 457.147 160.928H449.083V176.736C449.083 179.168 449.595 181.024 450.619 182.304C451.643 183.541 453.307 184.16 455.611 184.16C456.421 184.16 457.104 184.075 457.659 183.904C458.256 183.733 458.747 183.648 459.131 183.648C459.515 183.605 459.835 183.733 460.091 184.032C460.347 184.331 460.475 184.843 460.475 185.568C460.475 186.08 460.368 186.549 460.155 186.976C459.984 187.403 459.664 187.701 459.195 187.872C458.683 188.043 458 188.192 457.147 188.32C456.336 188.491 455.589 188.576 454.907 188.576ZM484.822 188.448C483.926 188.448 483.222 188.213 482.71 187.744C482.24 187.232 482.006 186.507 482.006 185.568V145.76C482.006 144.821 482.24 144.117 482.71 143.648C483.222 143.136 483.947 142.88 484.885 142.88H508.118C508.843 142.88 509.398 143.072 509.782 143.456C510.166 143.84 510.358 144.373 510.358 145.056C510.358 145.781 510.166 146.336 509.782 146.72C509.398 147.104 508.843 147.296 508.118 147.296H487.254V163.04H506.774C507.499 163.04 508.054 163.232 508.438 163.616C508.864 164 509.078 164.533 509.078 165.216C509.078 165.941 508.864 166.496 508.438 166.88C508.054 167.264 507.499 167.456 506.774 167.456H487.254V185.568C487.254 187.488 486.443 188.448 484.822 188.448ZM528.105 188.576C525.075 188.576 522.451 187.915 520.233 186.592C518.014 185.269 516.286 183.413 515.049 181.024C513.854 178.592 513.257 175.733 513.257 172.448C513.257 169.973 513.598 167.755 514.281 165.792C514.963 163.787 515.966 162.08 517.289 160.672C518.611 159.264 520.169 158.197 521.961 157.472C523.795 156.704 525.843 156.32 528.105 156.32C531.134 156.32 533.758 156.981 535.977 158.304C538.195 159.627 539.902 161.504 541.097 163.936C542.334 166.325 542.953 169.163 542.953 172.448C542.953 174.923 542.611 177.141 541.929 179.104C541.246 181.067 540.243 182.773 538.921 184.224C537.598 185.632 536.019 186.72 534.185 187.488C532.393 188.213 530.366 188.576 528.105 188.576ZM528.105 184.416C530.025 184.416 531.71 183.947 533.161 183.008C534.611 182.069 535.721 180.704 536.489 178.912C537.299 177.12 537.705 174.965 537.705 172.448C537.705 168.565 536.83 165.6 535.081 163.552C533.374 161.504 531.049 160.48 528.105 160.48C526.142 160.48 524.435 160.949 522.985 161.888C521.577 162.784 520.467 164.128 519.657 165.92C518.889 167.669 518.505 169.845 518.505 172.448C518.505 176.288 519.379 179.253 521.129 181.344C522.878 183.392 525.203 184.416 528.105 184.416ZM561.747 188.576C559.23 188.576 557.139 188.128 555.475 187.232C553.854 186.293 552.616 184.907 551.763 183.072C550.952 181.237 550.547 178.955 550.547 176.224V159.072C550.547 158.176 550.76 157.515 551.187 157.088C551.656 156.661 552.296 156.448 553.107 156.448C553.96 156.448 554.6 156.661 555.027 157.088C555.496 157.515 555.731 158.176 555.731 159.072V176.16C555.731 178.891 556.286 180.939 557.395 182.304C558.547 183.627 560.339 184.288 562.771 184.288C565.416 184.288 567.571 183.392 569.235 181.6C570.899 179.808 571.731 177.461 571.731 174.56V159.072C571.731 158.176 571.944 157.515 572.371 157.088C572.84 156.661 573.502 156.448 574.355 156.448C575.166 156.448 575.784 156.661 576.211 157.088C576.68 157.515 576.915 158.176 576.915 159.072V185.76C576.915 187.552 576.083 188.448 574.419 188.448C573.608 188.448 572.968 188.213 572.499 187.744C572.072 187.275 571.859 186.613 571.859 185.76V179.936L572.691 180.832C571.838 183.349 570.43 185.269 568.467 186.592C566.547 187.915 564.307 188.576 561.747 188.576ZM589.174 188.448C588.321 188.448 587.681 188.213 587.254 187.744C586.827 187.275 586.614 186.613 586.614 185.76V159.072C586.614 158.219 586.827 157.579 587.254 157.152C587.681 156.683 588.299 156.448 589.11 156.448C589.921 156.448 590.539 156.683 590.966 157.152C591.435 157.579 591.67 158.219 591.67 159.072V164.576L590.966 163.808C591.862 161.333 593.313 159.477 595.318 158.24C597.366 156.96 599.713 156.32 602.358 156.32C604.833 156.32 606.881 156.768 608.502 157.664C610.166 158.56 611.403 159.925 612.214 161.76C613.025 163.552 613.43 165.835 613.43 168.608V185.76C613.43 186.613 613.195 187.275 612.726 187.744C612.299 188.213 611.681 188.448 610.87 188.448C610.017 188.448 609.355 188.213 608.886 187.744C608.459 187.275 608.246 186.613 608.246 185.76V168.928C608.246 166.027 607.67 163.915 606.518 162.592C605.409 161.227 603.617 160.544 601.142 160.544C598.283 160.544 596.001 161.44 594.294 163.232C592.63 164.981 591.798 167.328 591.798 170.272V185.76C591.798 187.552 590.923 188.448 589.174 188.448ZM634.829 188.576C632.056 188.576 629.624 187.915 627.533 186.592C625.485 185.269 623.885 183.413 622.733 181.024C621.624 178.592 621.069 175.733 621.069 172.448C621.069 169.12 621.624 166.261 622.733 163.872C623.885 161.44 625.485 159.584 627.533 158.304C629.624 156.981 632.056 156.32 634.829 156.32C637.645 156.32 640.056 157.024 642.061 158.432C644.066 159.84 645.41 161.739 646.093 164.128H645.389V145.056C645.389 144.203 645.602 143.563 646.029 143.136C646.498 142.667 647.16 142.432 648.013 142.432C648.824 142.432 649.442 142.667 649.869 143.136C650.338 143.563 650.573 144.203 650.573 145.056V185.76C650.573 186.613 650.36 187.275 649.933 187.744C649.506 188.213 648.866 188.448 648.013 188.448C647.202 188.448 646.562 188.213 646.093 187.744C645.666 187.275 645.453 186.613 645.453 185.76V179.68L646.157 180.576C645.474 183.008 644.109 184.949 642.061 186.4C640.056 187.851 637.645 188.576 634.829 188.576ZM635.917 184.416C637.837 184.416 639.522 183.947 640.973 183.008C642.424 182.069 643.533 180.704 644.301 178.912C645.112 177.12 645.517 174.965 645.517 172.448C645.517 168.565 644.642 165.6 642.893 163.552C641.186 161.504 638.861 160.48 635.917 160.48C633.954 160.48 632.248 160.949 630.797 161.888C629.389 162.784 628.28 164.128 627.469 165.92C626.701 167.669 626.317 169.845 626.317 172.448C626.317 176.288 627.192 179.253 628.941 181.344C630.69 183.392 633.016 184.416 635.917 184.416ZM662.798 176.544C662.286 176.544 661.859 176.373 661.518 176.032C661.219 175.691 661.048 175.179 661.006 174.496L659.726 145.824C659.683 144.8 659.918 143.989 660.43 143.392C660.984 142.752 661.774 142.432 662.798 142.432C663.779 142.432 664.526 142.752 665.038 143.392C665.55 143.989 665.784 144.8 665.742 145.824L664.462 174.496C664.462 175.179 664.312 175.691 664.014 176.032C663.715 176.373 663.31 176.544 662.798 176.544ZM662.798 188.256C661.731 188.256 660.878 187.936 660.238 187.296C659.598 186.613 659.278 185.76 659.278 184.736C659.278 183.712 659.598 182.88 660.238 182.24C660.878 181.557 661.731 181.216 662.798 181.216C663.864 181.216 664.696 181.557 665.294 182.24C665.934 182.88 666.254 183.712 666.254 184.736C666.254 185.76 665.934 186.613 665.294 187.296C664.696 187.936 663.864 188.256 662.798 188.256Z" fill="black"/>
<path d="M393.314 19.8242C390.639 22.1407 388.853 24.6396 387.51 27.3207C385.258 31.8148 387.234 39.1178 388.84 41.2654C390.15 43.0172 391.523 44.4801 393.129 45.7375C393.947 46.3776 394.382 47.3489 395.097 47.9709C397.057 49.6735 394.569 53.4137 394.564 59.7492C394.561 63.1897 396.167 65.9293 396.977 69.0501C398.757 75.9099 397.787 78.2626 397.159 80.941C396.914 81.9864 397.068 83.6034 397.422 84.9547C397.776 86.306 398.484 87.3677 399.91 87.9147C401.336 88.4616 403.46 88.4616 404.819 88.1962C406.832 87.8031 407.61 86.3221 408.5 85.6947C409.539 84.9628 410.651 86.8476 411.184 87.7404C412.869 90.5595 419.043 87.046 421.987 85.7805C423.223 85.2488 425.445 86.6599 431.052 87.0246C445.656 87.9745 455.689 87.0353 457.115 86.2336C459.888 84.6753 461.941 83.1101 464.089 81.9411C466.527 80.6139 468.912 78.284 470.703 76.1364C472.65 73.8024 474.274 71.8492 475.355 69.7016C476.372 67.6794 476.784 65.0606 477.055 59.6152C477.361 53.4586 477.149 44.1476 475.899 41.8177C474.761 39.6943 472.682 39.4878 471.612 39.3966C470.46 39.2984 469.464 40.7318 468.572 41.8016C464.561 46.6071 467.143 58.422 466.333 60.7466C465.321 63.6509 464.461 65.9293 463.298 68.1653C460.885 70.4068 459.099 70.943 457.673 71.2996C456.954 71.4792 456.246 71.6562 454.981 72.3747" stroke="black" stroke-width="2" stroke-linecap="round"/>
<path d="M393.314 19.287C393.314 17.5121 394.022 13.9354 395.454 11.2543C396.205 9.84755 397.063 8.74472 398.132 8.38545C400.632 7.54607 403.31 11.0612 404.75 12.6672C405.443 13.4403 406.538 14.0963 407.428 15.2572C409.969 18.5717 417.252 15.7157 423.142 15.7103C424.41 15.8873 424.941 16.2412 425.48 16.512C426.019 16.7828 426.55 16.9598 427.633 17.1421" stroke="black" stroke-width="2" stroke-linecap="round"/>
<path d="M407.793 16.0685C410.823 15.5322 413.681 14.8244 420.011 14.6367C423.875 15.8861 425.483 17.1356 426.553 18.0284C427.092 18.3903 427.623 18.5673 428.706 19.2858" stroke="black" stroke-width="2" stroke-linecap="round"/>
<path d="M427.096 17.6801L432.458 15.5352" stroke="black" stroke-width="2" stroke-linecap="round"/>
<path d="M419.59 15.5352H428.706" stroke="black" stroke-width="2" stroke-linecap="round"/>
<path d="M408.648 15.4548C410.013 15.0515 410.508 14.9584 411.045 14.8576C411.408 14.7892 411.628 14.7721 412.37 14.679C412.831 14.6211 413.164 14.6324 414.664 14.5859C416.071 14.5422 418.792 14.57 420.223 14.5854C421.829 14.6026 422.135 14.7405 422.516 14.7717C423.046 14.8151 423.961 15.0962 424.48 15.2294C424.74 15.296 425.07 15.4231 425.334 15.5165C425.695 15.6444 426.001 15.7184 426.667 15.9428C426.975 16.0466 427.212 16.1989 427.468 16.2618C427.809 16.3453 428.174 16.4941 428.708 16.6029C429.434 16.7505 429.665 16.8825 429.758 16.8983C429.792 16.9042 429.79 16.822 429.759 16.7519C429.559 16.2955 428.86 16.0452 428.541 15.8976C428.317 15.7938 428.022 15.7193 427.788 15.595C427.555 15.4712 427.061 15.2546 426.763 15.1214C426.557 15.0291 426.314 14.9584 426.05 14.8885C425.705 14.7974 425.275 14.6948 424.932 14.6478C424.42 14.5776 423.676 14.4778 423.364 14.4226C423.069 14.3704 422.513 14.3372 421.961 14.2599C421.443 14.1874 420.976 14.1509 420.564 14.1046C420.142 14.0571 419.809 14.0424 419.202 14.0191C418.655 13.9982 417.626 14.0112 417.072 14.0189C416.363 14.0288 416.085 14.1193 415.79 14.1586C415.51 14.1958 415.138 14.2282 414.889 14.2904C414.641 14.3526 414.27 14.3838 413.989 14.4301C413.664 14.4836 413.353 14.5384 412.733 14.5777C412.399 14.599 412.188 14.7405 411.963 14.849C411.769 14.9733 411.399 15.2201 410.862 15.5314C410.775 15.594 410.76 15.6401 410.744 15.6876" stroke="black" stroke-width="2" stroke-linecap="round"/>
<path d="M426.623 15.7795C428.237 15.2677 428.485 15.1434 428.679 15.0272C428.918 14.8844 429.213 14.6787 429.548 14.515C429.925 14.3305 430.44 14.0268 430.82 13.8326C431.752 13.3562 431.961 13.2193 432.481 13.0018C432.872 12.838 433.357 12.5674 433.685 12.4582C434.035 12.3411 434.399 12.0393 434.67 11.9459C434.934 11.8552 435.128 11.6826 435.5 11.5348C435.847 11.3972 436.275 11.2635 436.734 11.1233C436.988 11.046 437.193 10.9217 437.426 10.836C437.736 10.7216 438.108 10.5957 438.736 10.4404C439.016 10.371 439.287 10.2847 439.521 10.1997C440.017 10.0196 440.918 10.1757 441.151 10.2765C441.384 10.3775 441.601 10.5324 441.795 10.7031C441.957 10.8446 442.159 11.0437 442.369 11.3236C442.691 11.7514 443.107 12.2386 443.254 12.5962C443.381 12.903 443.65 13.3087 443.759 13.6442C443.846 13.9096 443.914 14.1329 444 14.4743C444.087 14.8204 444.132 15.2487 444.171 15.5844C444.195 15.7913 444.209 15.996 444.256 16.3891C444.358 17.2526 444.287 17.9514 444.31 18.1761C444.329 18.3539 444.334 18.4799 444.357 18.9262C444.417 20.0779 444.38 20.9321 444.419 21.1023C444.44 21.1961 444.473 21.3032 444.489 21.8427C444.505 22.3822 444.505 23.3503 444.497 23.8874C444.486 24.643 444.397 24.859 444.326 25.0763C444.22 25.4038 444.194 25.6656 444.132 25.8837C444.117 25.9305 444.101 25.9766 444.093 26.0465C444.085 26.1163 444.085 26.2085 444.085 26.3035" stroke="black" stroke-width="2" stroke-linecap="round"/>
<path d="M444.34 24.4336C444.451 24.7335 444.901 24.9589 445.502 25.3896C446.336 25.9872 446.705 26.535 447.138 26.9499C447.575 27.3691 447.796 27.8878 448.059 28.3777C448.321 28.8671 448.547 29.3918 448.642 29.9368C448.731 30.4457 448.885 31.0445 449.056 31.9272C449.188 32.6135 449.262 33.2992 449.394 34.2733C449.584 35.6766 449.45 36.758 449.507 37.3927C449.726 39.8671 449.113 40.927 448.832 41.6417C448.463 42.5789 448.25 43.1817 447.78 43.8221C447.347 44.4132 447.271 45.1749 446.953 45.645C446.599 46.1691 446.407 46.7149 446.07 47.2983C445.844 47.8062 445.469 48.5547 445.018 49.1213C444.905 49.2346 444.793 49.3462 444.565 49.6866" stroke="black" stroke-width="2" stroke-linecap="round"/>
<path d="M446.031 47.543L448.173 49.234" stroke="black" stroke-width="2" stroke-linecap="round"/>
<path d="M446.145 47.8828C448.923 50.248 449.45 50.9989 449.826 51.5073C450.206 52.0215 450.539 52.6899 450.897 53.5163C451.242 54.314 451.556 54.7192 452.061 55.5083C452.537 56.2519 452.832 57.1994 453.152 57.8014C453.528 58.5104 454.034 59.6751 454.355 60.4885C454.612 61.1402 454.9 62.0471 455.144 62.7612C455.461 63.6884 455.802 64.9016 456.046 65.786C456.239 66.4871 456.404 67.3795 456.591 68.2853C456.751 69.0623 456.742 69.8259 456.948 70.3529C457.004 70.5034 457.042 70.6895 457.061 70.8597C457.08 71.0299 457.08 71.1787 457.08 71.3321" stroke="black" stroke-width="2" stroke-linecap="round"/>
<path d="M449.752 37.9631C451.24 37.8887 452.267 37.8131 453.369 37.7568C455.62 37.6415 457.712 37.9236 458.726 38.2427C459.478 38.4792 460.119 38.8627 460.779 39.2956C461.023 39.4647 461.324 39.653 461.662 39.8407C461.814 39.9168 461.925 39.954 462.04 39.9923" stroke="black" stroke-width="2" stroke-linecap="round"/>
<path d="M449.414 31.8747C453.432 30.461 455.725 29.6955 456.175 29.5833C457.237 29.3185 458.726 29.1329 459.465 29.0377C459.596 29.0191 459.745 28.9818 460.101 28.9627C460.457 28.9435 461.015 28.9435 461.815 29.0563" stroke="black" stroke-width="2" stroke-linecap="round"/>
<path d="M386.732 36.3834C384.14 35.557 383.542 35.4071 382.789 35.3501C382.411 35.3215 382.074 35.1816 380.714 35.0688C379.506 34.9687 377.233 35.0305 375.915 35.0863C373.748 35.1781 372.572 35.6303 371.535 36.0998C371.327 36.1951 371.141 36.2323 370.989 36.2701C370.837 36.3078 370.726 36.345 370.498 36.3834" stroke="black" stroke-width="2" stroke-linecap="round"/>
<path d="M385.829 29.2827C381.439 27.125 378.917 25.939 378.392 25.7518C377.298 25.3617 376.587 25.1115 375.929 24.8122C375.315 24.5322 374.67 24.5861 372.254 24.5664C371.626 24.6222 371.362 24.6977 371.063 24.7913C370.912 24.8477 370.763 24.9221 370.609 24.9988" stroke="black" stroke-width="2" stroke-linecap="round"/>
<path d="M419.279 44.1055C419.337 44.1055 419.395 44.1055 418.935 45.6012C418.476 47.0969 417.498 50.0884 416.49 53.1705" stroke="black" stroke-width="13" stroke-linecap="round"/>
<path d="M403.241 52.4727C403.068 53.6912 402.43 54.2142 401.937 54.562C401.55 54.8346 401.497 57.5613 401.555 61.4243C401.588 63.645 402.076 64.672 402.397 65.5428C402.775 67.2294 403.122 68.1586 403.442 70.6811C403.643 71.0698 404.046 70.8397 404.635 70.4283" stroke="black" stroke-width="13" stroke-linecap="round"/>
<path d="M404.286 51.4257C404.402 50.6779 404.517 49.93 404.461 49.5447C404.405 49.1595 404.175 49.1595 403.97 49.217C403.571 49.3292 403.3 49.7958 403.068 49.9439C401.621 50.8685 402.139 47.2454 401.5 46.4025C400.915 45.6312 400.106 45.0384 399.206 44.05C398.104 42.8408 397.376 41.7262 396.763 40.9975C396.233 40.367 395.689 39.7493 395.281 39.0511C394.918 38.4298 394.528 37.5423 394.176 36.6402C393.873 35.86 393.653 34.6973 393.479 33.6766C393.316 32.7166 393.419 31.556 393.536 30.8578C393.669 30.0611 394.406 29.464 394.871 28.7371C395.391 27.9256 395.8 27.1978 396.323 26.3262C396.918 25.3353 397.659 24.6422 398.589 23.5953C399.16 22.9519 399.576 22.2574 400.101 21.4738C400.55 20.8026 400.566 20.0504 400.626 16.4279C400.631 16.1175 400.8 18.0038 401.436 20.8209C401.578 21.4469 401.727 21.7832 402.132 21.9035C404.096 22.4876 405.095 21.4415 408.081 21.3526C410.37 21.2844 410.036 23.7636 410.994 24.0268C412.481 24.4355 413.697 23.4777 415.002 23.2144C415.545 23.1051 416.022 23.1273 416.486 22.9826C416.969 22.8319 419.718 22.6618 424.013 22.7481C426.71 22.8023 429.027 23.1848 431.205 23.1273C432.768 23.086 433.744 22.083 434.471 21.7335C435.51 21.2343 436.244 20.3991 436.652 19.7009C436.745 19.5412 436.711 19.3531 436.798 19.2354C436.884 19.1177 437.056 19.0602 437.174 18.9443C437.292 18.8284 437.349 18.6558 437.293 18.5381C437.236 18.4204 437.063 18.3629 436.888 18.4196C436.014 18.7022 435.205 19.4054 434.448 19.5527C433.619 19.7138 433.052 20.5106 432.791 20.7712C432.67 20.8916 432.702 21.0894 433.277 21.3509C436.384 22.7629 437.407 22.4875 437.726 22.5738C438.496 22.782 438.28 25.6637 438.598 27.1917C438.75 27.9219 439.323 28.4704 440.166 29.254C441.039 30.0656 441.707 31.026 442.085 32.187C442.402 33.1612 442.694 34.1046 442.957 35.3807C443.487 37.9469 442.698 38.8114 442.349 39.7423C442.032 40.5886 441.537 41.6565 440.985 42.59C440.828 42.8559 440.494 43.1103 440.173 43.3736C439.853 43.6368 439.507 43.8669 435.101 43.9855C430.695 44.104 422.239 44.104 417.278 44.2478C411.097 44.427 409.405 45.0332 408.621 45.1779C408.292 45.2387 408.125 45.3801 406.972 43.5409C405.819 41.7018 403.69 37.9049 402.536 35.7764C401.211 33.3323 401.149 32.6019 401.264 31.9351C401.322 31.5985 401.609 31.3259 402.044 31.1777C404.163 30.4555 407.288 31.8942 410.06 33.1755C410.889 33.5588 411.892 33.932 413.254 34.6843C414.905 35.5964 416.481 36.7788 419.14 37.3305C420.911 37.6979 423.64 37.5946 425.551 37.4229C428.54 37.1543 429.852 36.261 430.632 35.9133C433.002 34.858 435.02 34.9832 435.838 34.7209C435.987 34.6731 435.784 34.2894 435.379 34.0262C434.373 33.3711 431.732 32.9506 427.85 32.3125C425.815 31.9781 423.623 31.7896 421.864 31.671C420.105 31.5525 418.839 31.5525 416.979 31.3224C415.119 31.0923 412.703 30.632 410.682 30.1073C407.062 29.1676 405.277 28.242 406.05 28.4695C409.434 29.4652 412.068 31.3154 413.226 32.8469C413.997 33.8665 414.844 35.5864 415.519 36.9636C416.195 38.3408 416.597 39.3763 416.92 40.8301C417.643 44.0917 417.71 46.827 417.652 48.3924C417.556 50.9966 415.342 53.2701 413.098 55.0526C412.054 55.882 410.224 56.8211 408.54 58.3299C407.521 59.2428 407.424 60.3687 407.453 61.4417C407.477 62.3459 407.829 63.0446 408.321 63.5667C409.232 64.5323 410.674 64.2091 412.867 64.2963C414.599 64.3651 417.591 64.3259 419.132 63.952C420.985 63.5025 421.133 59.8736 421.773 56.4176C422.057 54.8847 421.259 54.1034 420.588 52.2485C420.349 51.5875 420.499 50.6308 420.671 50.358C420.957 49.9069 422.005 51.6506 423.249 54.0781C424.094 55.7276 425.126 58.3465 425.861 59.8814C426.597 61.4164 426.942 61.8191 427.35 61.9115C427.758 62.0039 428.218 61.7738 428.628 61.4539C429.451 60.8108 429.738 59.3384 429.652 57.6265C429.483 54.2696 426.252 51.6018 426.395 51.3403C426.477 51.1922 426.827 51.2514 427.061 51.3377C427.514 51.5043 428.969 53.6153 431.291 56.7497C432.819 58.8135 434.091 59.8475 435.048 60.4864C435.463 60.7633 435.833 60.7801 436.097 60.6947C436.609 60.5289 436.826 59.8544 437.029 59.2173C437.543 57.6058 435.909 54.4102 435.172 52.6207C435.071 52.3766 435.142 52.0707 435.401 52.0664C437.326 52.034 438.333 54.3265 439.005 55.2574C439.166 55.4806 439.323 55.7211 439.44 55.6383C439.862 55.3413 439.675 53.76 439.79 52.2782C439.83 51.763 440.135 51.7744 440.57 52.0908C442.765 53.6877 443.043 55.0831 443.682 55.9547C444.303 56.8017 444.497 57.3511 444.613 57.44C444.966 57.7087 444.382 56.4254 444.497 56.1055C444.546 55.9682 444.842 56.0733 445.075 56.2755C446.07 57.1368 446.296 58.1617 446.531 60.163C446.696 61.5689 447.227 62.2305 447.547 62.9574C447.934 63.8327 448.098 64.6711 448.246 66.2374C448.335 67.1886 448.565 67.9833 449.144 69.2602C449.275 69.5487 449.263 69.7265 449.292 69.6716C449.455 69.3587 449.437 68.515 449.552 68.1044C450.067 66.2666 450.366 70.4256 450.281 70.6871C449.858 71.9816 446.027 70.1414 444.385 69.4999C443.226 69.047 442.468 68.2796 441.252 68.046C440.562 67.9135 439.351 67.7009 436.628 67.6399C433.906 67.5788 429.707 67.6939 426.968 67.8682C423.066 68.1166 421.433 68.5097 420.305 68.6248C417.257 68.9354 415.335 69.7265 413.793 70.1066C413.221 70.2473 412.6 70.4273 411.961 70.3123C411.515 70.232 411.608 69.2123 411.608 68.5716C411.608 67.586 410.454 71.6372 409.23 72.9804C408.56 73.7143 407.661 74.0847 406.904 74.3201C406.059 74.5826 405.047 75.1307 404.231 76.0869C402.43 78.197 403.418 79.5481 403.154 80.9105C403.091 81.2391 402.895 81.4064 403.008 81.294C404.457 79.8451 406.717 78.3941 409.275 77.6636C410.065 77.4381 411.078 77.3446 417.273 76.996C422.77 76.6866 433.075 76.8774 438.811 76.935C445.412 77.0012 446.529 77.3411 447.137 77.5155C447.504 77.6208 448.032 77.5747 448.299 77.661C448.565 77.7473 448.565 77.9199 448.45 78.0376C447.743 78.7615 445.612 78.5022 444.501 78.7654C443.306 79.0484 441.889 79.1437 440.552 79.4331C439.869 79.5807 439.27 79.5499 436.736 79.637C434.432 79.7162 430.059 79.6667 429.072 79.6667C427.528 79.6667 433.8 79.4941 435.103 79.2326C436.694 79.1437 437.871 79.0861 439.601 78.999C441.043 78.9693 443.632 78.9693 446.299 78.9693" stroke="black" stroke-width="13" stroke-linecap="round"/>
<path d="M472.623 54.0416L472.1 52.4727" stroke="black" stroke-width="5" stroke-linecap="round"/>
<path d="M471.926 52.4733C470.997 47.9443 470.88 46.093 471.024 44.8065C471.051 44.5725 471.054 44.3427 470.939 44.3393C469.995 44.3107 469.778 45.7862 469.515 46.6299C469.125 47.8808 469.311 49.1559 469.311 49.7678C469.311 51.1845 469.775 46.2603 469.891 45.4166C470.083 44.0341 470.643 42.7738 471.4 42.1314C472.002 41.6206 473.083 43.0562 473.957 43.6385C474.371 43.9149 474.366 45.0279 474.453 46.5637C474.543 48.1754 474.889 51.2879 474.803 54.7745C474.774 55.9627 474.544 55.9599 474.426 55.8448C473.61 55.0469 472.804 52.9475 472.073 51.6636C471.817 51.2147 471.347 50.6185 470.883 49.8924C470.693 49.5942 470.42 49.5691 470.186 49.597C469.704 49.6545 469.255 50.031 468.849 50.4939C467.914 51.559 468.15 52.8743 468.177 55.2539C468.189 56.2868 468.844 57.3475 469.164 58.5704C469.461 59.7012 469.659 62.5599 469.457 64.6143C469.353 65.6729 468.092 66.2434 467.773 66.3611C466.682 66.7635 467.623 63.8673 467.915 63.1099C468.125 62.5648 466.236 66.5276 465.652 67.7522C464.933 69.2598 462.753 71.583 461.789 72.663C460.938 73.6154 459.555 74.435 458.679 74.7575C457.798 75.0821 455.783 75.7111 455.216 76.038C452.875 77.3886 457.803 74.0916 457.921 73.8301C457.964 73.7348 457.579 73.7412 457.315 73.8275C455.445 74.4406 453.974 77.4544 453.651 78.2711C453.523 78.5957 453.564 78.9693 453.592 79.2883C453.763 81.2511 459.249 79.3232 460.417 78.4803C461.385 77.7814 463.255 76.3108 464.6 74.8203C465.415 73.9181 466.284 73.0509 467.36 72.1174C468.924 70.7598 470.643 68.6334 470.966 67.788C471.333 66.8279 472.037 65.499 472.332 63.666C472.599 62.0033 472.738 60.6144 472.711 57.1645C472.703 56.163 472.044 55.5572 471.753 55.0333C471.535 54.6411 472.794 55.667 473.435 56.0165C474.144 56.4038 473.958 57.6997 474.307 58.7151C474.847 60.2878 474.541 61.7615 474.31 62.8719C474.123 63.7715 473.439 64.6727 473.118 65.3709C472.741 66.191 472.159 66.939 471.608 67.6659C471.018 68.4456 470.765 69.0326 470.648 69.2078C470.282 69.7562 471.633 67.9919 472.301 67.2066C472.463 67.0149 472.735 67.0017 472.939 67.0584C473.144 67.115 473.317 67.2876 473.348 67.5779C473.502 69.0007 472.567 69.9025 471.986 70.7454C471.45 71.5217 470.304 72.4582 469.459 73.1868C468.658 73.877 467.745 74.435 466.931 74.9885C466.267 75.4402 465.538 76.004 464.636 76.5287C463.94 76.9337 463.446 77.7472 462.602 78.4454C461.825 79.0875 460.772 80.0135 459.929 80.4223C458.965 80.89 457.868 81.5824 456.966 82.2518C456.22 82.8051 455.368 83.2106 454.207 83.6473C453.248 84.0079 452.29 84.2566 451.475 84.5774C451.243 84.6684 450.954 84.7796 450.921 84.7813C449.963 84.8317 453.67 84.0858 454.867 83.5349C456.13 82.9536 457.394 82.4575 458.209 82.1106C459.225 81.6783 460.068 81.5301 461.171 81.1231C462.642 80.58 463.206 79.8461 463.933 79.3214C464.698 78.7687 465.298 78.333 466.025 77.6374C466.743 76.9505 467.794 76.3038 468.15 75.6597C468.895 74.3107 465.193 76.7605 463.911 77.3707C462.33 78.1231 460.023 79.6613 458.392 80.6533C457.323 81.3036 456.013 82.1612 454.961 82.6885C453.983 83.1786 453.391 83.5 452.724 83.7354C451.863 84.0389 451.069 84.4309 444.325 84.4344C442.531 84.4353 441.384 84.0892 439.698 83.9707C435.834 83.699 433.229 83.7371 432.504 83.5628C431.057 83.2144 429.976 83.3292 427.803 82.9535C424.75 82.4256 423.815 82.3425 422.972 82.2545C422.587 82.2142 422.187 82.0514 422.212 82.0505C423.241 82.015 424.619 82.4575 426.181 82.5726C430.228 82.8705 432.632 83.385 433.803 83.6482C434.792 83.7354 435.833 83.8522 437.602 84.2862C438.554 84.3751 440.223 84.3751 441.942 84.3751" stroke="black" stroke-width="5" stroke-linecap="round"/>
<path d="M413.002 86.2915V86.1172" stroke="black" stroke-width="5" stroke-linecap="round"/>
<path d="M417.187 80.3633C416.842 81.3988 416.607 82.1048 416.433 82.3951C416.018 83.0891 414.635 83.034 413.588 83.326C412.785 83.5499 412.076 83.5587 411.727 83.7609C411.565 83.8548 411.609 84.1357 411.724 84.283C412.291 85.0099 413.463 85.5303 414.828 85.8833C416.153 86.2259 417.647 84.6657 418.462 84.2002C419.612 83.5435 421.019 83.7348 424.35 83.7043C425.088 83.733 425.318 83.7905 425.523 83.8202C425.727 83.8498 425.9 83.8498 426.078 83.8498" stroke="black" stroke-width="5" stroke-linecap="round"/>
<path d="M408.296 27.1954C407.951 28.5761 407.773 29.5174 408.032 29.8661C408.201 30.0947 408.808 29.9846 409.133 29.8983C409.457 29.812 409.572 29.6395 409.631 29.4355C409.69 29.2315 409.69 29.0014 409.604 28.7678C409.42 28.2697 408.995 27.952 408.618 27.7489C408.423 27.6434 408.184 27.6033 407.979 27.6025C407.775 27.6016 407.602 27.6591 407.456 27.8326C406.759 28.6579 406.786 29.7475 406.813 30.5922C406.84 31.4217 408.235 31.6686 408.757 31.6704C409.983 31.6745 409.516 29.8138 409.834 28.9422C410.001 28.4856 410.039 28.0112 409.982 27.5763C409.954 27.3654 409.809 27.1989 409.548 27.11C409.288 27.0211 408.885 27.0211 408.62 27.1074C408.355 27.1937 408.24 27.3662 408.123 27.5414C408.006 27.7166 407.891 27.8892 407.773 28.067" stroke="white" stroke-width="5" stroke-linecap="round"/>
<path d="M427.71 28.1524C428.055 29.5331 428.233 30.4745 427.974 30.8231C427.804 31.0517 427.197 30.9417 426.873 30.8554C426.549 30.7691 426.434 30.5965 426.375 30.3925C426.315 30.1886 426.315 29.9585 426.402 29.7249C426.586 29.2267 427.011 28.909 427.387 28.7059C427.583 28.6005 427.822 28.5604 428.026 28.5595C428.231 28.5586 428.404 28.6161 428.55 28.7896C429.247 29.615 429.22 30.7046 429.193 31.5492C429.166 32.3787 427.771 32.6257 427.249 32.6274C426.023 32.6315 426.49 30.7708 426.172 29.8992C426.005 29.4426 425.967 28.9683 426.024 28.5333C426.052 28.3224 426.197 28.1559 426.457 28.067C426.718 27.9781 427.121 27.9781 427.386 28.0644C427.651 28.1507 427.766 28.3233 427.883 28.4985C427.999 28.6737 428.114 28.8463 428.233 29.0241" stroke="white" stroke-width="5" stroke-linecap="round"/>
</svg>
